<svg xmlns="http://www.w3.org/2000/svg" viewBox="0 0 300 220" role="img" aria-label="Welva Studio">
<title>Welva Studio</title>
<defs><mask id="k" maskUnits="userSpaceOnUse" x="-20" y="-20" width="340" height="260"><rect x="-20" y="-20" width="340" height="260" fill="#fff"/><path d="M121 87 L87 116 L121 145" fill="none" stroke="#000" stroke-width="38"/><path d="M179 87 L213 116 L179 145" fill="none" stroke="#000" stroke-width="38"/></mask></defs>

<g transform="translate(0 0)">
<g mask="url(#k)"><g fill="none" stroke="#1f437f" stroke-linecap="round"><path d="M22 44 L74 44" stroke-width="11"/><path d="M226 44 L278 44" stroke-width="11"/><path d="M74 44 L126 70" stroke-width="11"/><path d="M226 44 L174 70" stroke-width="11"/><path d="M126 70 L150 22" stroke-width="11"/><path d="M174 70 L150 22" stroke-width="11"/><path d="M150 22 L108 198" stroke-width="18"/><path d="M150 22 L192 198" stroke-width="18"/><path d="M108 198 L22 44" stroke-width="18"/><path d="M192 198 L278 44" stroke-width="18"/></g><g fill="#1f437f"><circle cx="150" cy="22" r="17"/><circle cx="22" cy="44" r="17"/><circle cx="278" cy="44" r="17"/><circle cx="108" cy="198" r="17"/><circle cx="192" cy="198" r="17"/></g></g>
<g fill="none" stroke="#10e8e3" stroke-width="20" stroke-linejoin="miter"><path d="M121 87 L87 116 L121 145"/><path d="M179 87 L213 116 L179 145"/></g>
</g>
</svg>
